<svg xmlns="http://www.w3.org/2000/svg" width="1200" height="630" viewBox="0 0 1200 630">
  <defs>
    <linearGradient id="bg" x1="0" y1="0" x2="1" y2="1">
      <stop offset="0%" stop-color="#11111b"/>
      <stop offset="100%" stop-color="#1e1e2e"/>
    </linearGradient>
    <linearGradient id="accent" x1="0" y1="0" x2="1" y2="0">
      <stop offset="0%" stop-color="#89b4fa"/>
      <stop offset="100%" stop-color="#74c7ec"/>
    </linearGradient>
  </defs>
  <rect width="1200" height="630" fill="url(#bg)"/>
  <!-- Subtle grid pattern -->
  <g opacity="0.03" stroke="#cdd6f4" stroke-width="1">
    <line x1="0" y1="0" x2="1200" y2="630"/>
    <line x1="400" y1="0" x2="1200" y2="530"/>
    <line x1="800" y1="0" x2="1200" y2="260"/>
    <line x1="0" y1="200" x2="1200" y2="630"/>
    <line x1="0" y1="400" x2="800" y2="630"/>
  </g>
  <!-- Top accent line -->
  <rect x="0" y="0" width="1200" height="3" fill="url(#accent)"/>
  <!-- Logo (scaled from viewBox 14 49 212 209) -->
  <g transform="translate(460, 160) scale(0.52)">
    <path d="m225.2 75.26c0-14.2-11.54-25.74-25.74-25.74h-158.5c-14.21 0-26.32 11.9-26.32 25.74v157.2c0 13.84 11.9 25.38 26.11 25.38h158.5c13.63 0 25.95-12.11 25.95-25.38v-157.2zm-12.53 157.2c0 7.96-6.91 13.63-13.84 13.42h-157.8c-8.17 0-13.79-6.3-13.79-13.42v-157.2c0-7.96 6.09-13.84 14.05-13.84h157.6c7.96 0 13.84 6.3 13.84 13.84v157.2z" fill="#89b4fa"/>
    <path d="m52.62 103.8 42.14 99.77h16.4l-41.1-99.77h-17.44z" fill="#cdd6f4"/>
    <path d="m120 191.7h66.96v11.93h-66.96v-11.93z" fill="#cdd6f4"/>
  </g>
  <!-- "rc" text -->
  <text x="600" y="370" text-anchor="middle" font-family="'SF Pro Display','Inter',system-ui,sans-serif" font-size="72" font-weight="700" fill="#cdd6f4" letter-spacing="-2">rc</text>
  <!-- Tagline -->
  <text x="600" y="415" text-anchor="middle" font-family="'SF Pro Display','Inter',system-ui,sans-serif" font-size="22" fill="#6c7086" letter-spacing="3" text-transform="uppercase">REMOTE CONTROL</text>
  <!-- Subtle domain -->
  <text x="600" y="530" text-anchor="middle" font-family="'JetBrains Mono','SF Mono',monospace" font-size="16" fill="#45475a">rc.huny.dev</text>
</svg>
