<svg xmlns="http://www.w3.org/2000/svg" width="1280" height="640" viewBox="0 0 1280 640">
  <defs>
    <radialGradient id="glow" cx="50%" cy="45%" r="50%">
      <stop offset="0%" stop-color="#89b4fa" stop-opacity="0.08"/>
      <stop offset="60%" stop-color="#74c7ec" stop-opacity="0.03"/>
      <stop offset="100%" stop-color="#1e1e2e" stop-opacity="0"/>
    </radialGradient>
  </defs>

  <!-- Background -->
  <rect width="1280" height="640" fill="#1e1e2e"/>
  <rect width="1280" height="640" fill="url(#glow)"/>

  <!-- Subtle grid pattern -->
  <g opacity="0.03" stroke="#cdd6f4" stroke-width="0.5">
    <line x1="0" y1="160" x2="1280" y2="160"/>
    <line x1="0" y1="320" x2="1280" y2="320"/>
    <line x1="0" y1="480" x2="1280" y2="480"/>
    <line x1="320" y1="0" x2="320" y2="640"/>
    <line x1="640" y1="0" x2="640" y2="640"/>
    <line x1="960" y1="0" x2="960" y2="640"/>
  </g>

  <!-- Logo (centered, scaled) -->
  <g transform="translate(530, 140) scale(0.95)">
    <svg viewBox="14 49 212 209" width="220" height="215" fill="none">
      <path d="m225.2 75.26c0-14.2-11.54-25.74-25.74-25.74h-158.5c-14.21 0-26.32 11.9-26.32 25.74v157.2c0 13.84 11.9 25.38 26.11 25.38h158.5c13.63 0 25.95-12.11 25.95-25.38v-157.2zm-12.53 157.2c0 7.96-6.91 13.63-13.84 13.42h-157.8c-8.17 0-13.79-6.3-13.79-13.42v-157.2c0-7.96 6.09-13.84 14.05-13.84h157.6c7.96 0 13.84 6.3 13.84 13.84v157.2z" fill="#89b4fa"/>
      <path d="m52.62 103.8 42.14 99.77h16.4l-41.1-99.77h-17.44z" fill="#cdd6f4"/>
      <path d="m120 191.7h66.96v11.93h-66.96v-11.93z" fill="#cdd6f4"/>
    </svg>
  </g>

  <!-- Title: "rc" -->
  <text x="640" y="430" text-anchor="middle" font-family="'SF Mono', 'JetBrains Mono', 'Fira Code', 'Cascadia Code', monospace" font-size="64" font-weight="700" fill="#cdd6f4" letter-spacing="-1">rc</text>

  <!-- Subtitle -->
  <text x="640" y="480" text-anchor="middle" font-family="'Inter', 'SF Pro', 'Helvetica Neue', Arial, sans-serif" font-size="22" font-weight="500" fill="#a6adc8">Remote Control</text>

  <!-- Tagline -->
  <text x="640" y="530" text-anchor="middle" font-family="'Inter', 'SF Pro', 'Helvetica Neue', Arial, sans-serif" font-size="16" fill="#6c7086">Your terminal, everywhere — stream any CLI to your browser</text>

  <!-- Top-left accent dot -->
  <circle cx="60" cy="60" r="4" fill="#89b4fa" opacity="0.3"/>
  <circle cx="60" cy="80" r="3" fill="#a6e3a1" opacity="0.2"/>
  <circle cx="80" cy="60" r="3" fill="#cba6f7" opacity="0.2"/>

  <!-- Bottom-right accent dot -->
  <circle cx="1220" cy="580" r="4" fill="#89b4fa" opacity="0.3"/>
  <circle cx="1220" cy="560" r="3" fill="#f9e2af" opacity="0.2"/>
  <circle cx="1200" cy="580" r="3" fill="#74c7ec" opacity="0.2"/>

  <!-- Bottom border accent line -->
  <rect x="440" y="570" width="400" height="2" rx="1" fill="#89b4fa" opacity="0.15"/>
</svg>
